# 
# Generated by Sweet Home 3D - mar nov 08 15:30:09 GMT 2016
# http://www.sweethome3d.com/
# 
mtllib mesa2.mtl
g Cube_3_1
usemtl metal
v 3.987854 -0 200.55922
v -0.887146 -0 200.55922
v 1.550354 -0 198.1145
v 3.987854 -0 195.66978
v -0.887146 -0 195.66978
v 3.987854 21.912352 198.1145
v 3.987854 43.8247 195.66978
v 3.987854 43.8247 200.55922
v 1.550354 21.912352 200.55922
v -0.887146 43.8247 200.55922
v -0.887146 21.912352 198.1145
v -0.887146 43.8247 195.66978
v 1.550354 43.8247 198.1145
v 1.550354 21.912352 195.66978
vn 0.0 -1.0 0.0
vn 1.0 0.0 0.0
vn 0.0 0.0 1.0
vn -1.0 0.0 0.0
vn 0.0 1.0 0.0
vn 0.0 0.0 -1.0
f 1//1 2//1 3//1
f 4//1 1//1 3//1
f 5//1 4//1 3//1
f 2//1 5//1 3//1
f 1//2 4//2 6//2
f 4//2 7//2 6//2
f 7//2 8//2 6//2
f 8//2 1//2 6//2
f 2//3 1//3 9//3
f 1//3 8//3 9//3
f 8//3 10//3 9//3
f 10//3 2//3 9//3
f 5//4 2//4 11//4
f 2//4 10//4 11//4
f 10//4 12//4 11//4
f 12//4 5//4 11//4
f 10//5 8//5 13//5
f 8//5 7//5 13//5
f 7//5 12//5 13//5
f 12//5 10//5 13//5
f 4//6 5//6 14//6
f 5//6 12//6 14//6
f 12//6 7//6 14//6
f 7//6 4//6 14//6
g Cube_2_2
usemtl metal
v 111.23786 43.98734 156.44865
v 3.987854 43.98734 156.44865
v 57.612854 41.552635 156.44865
v 111.23786 39.117928 156.44865
v 3.987854 39.117928 156.44865
v 111.23786 41.552635 154.00394
v 111.23786 39.117928 151.55922
v 111.23786 43.98734 151.55922
v 57.612854 43.98734 154.00394
v 3.987854 43.98734 151.55922
v 3.987854 41.552635 154.00394
v 3.987854 39.117928 151.55922
v 57.612854 41.552635 151.55922
v 57.612854 39.117928 154.00394
f 15//3 16//3 17//3
f 18//3 15//3 17//3
f 19//3 18//3 17//3
f 16//3 19//3 17//3
f 15//2 18//2 20//2
f 18//2 21//2 20//2
f 21//2 22//2 20//2
f 22//2 15//2 20//2
f 16//5 15//5 23//5
f 15//5 22//5 23//5
f 22//5 24//5 23//5
f 24//5 16//5 23//5
f 19//4 16//4 25//4
f 16//4 24//4 25//4
f 24//4 26//4 25//4
f 26//4 19//4 25//4
f 24//6 22//6 27//6
f 22//6 21//6 27//6
f 21//6 26//6 27//6
f 26//6 24//6 27//6
f 18//1 19//1 28//1
f 19//1 26//1 28//1
f 26//1 21//1 28//1
f 21//1 18//1 28//1
g Cube_1_3_3
usemtl metal
v -0.887146 19.455246 200.48784
v -0.887146 19.455246 151.59344
v 1.550354 19.455246 176.04063
v 3.987854 19.455246 200.48784
v 3.987854 19.455246 151.59344
v 1.550354 21.889952 200.48784
v 3.987854 24.324657 200.48784
v -0.887146 24.324657 200.48784
v -0.887146 21.889952 176.04063
v -0.887146 24.324657 151.59344
v 1.550354 21.889952 151.59344
v 3.987854 24.324657 151.59344
v 1.550354 24.324657 176.04063
v 3.987854 21.889952 176.04063
f 29//1 30//1 31//1
f 32//1 29//1 31//1
f 33//1 32//1 31//1
f 30//1 33//1 31//1
f 29//3 32//3 34//3
f 32//3 35//3 34//3
f 35//3 36//3 34//3
f 36//3 29//3 34//3
f 30//4 29//4 37//4
f 29//4 36//4 37//4
f 36//4 38//4 37//4
f 38//4 30//4 37//4
f 33//6 30//6 39//6
f 30//6 38//6 39//6
f 38//6 40//6 39//6
f 40//6 33//6 39//6
f 38//5 36//5 41//5
f 36//5 35//5 41//5
f 35//5 40//5 41//5
f 40//5 38//5 41//5
f 32//2 33//2 42//2
f 33//2 40//2 42//2
f 40//2 35//2 42//2
f 35//2 32//2 42//2
g Cube_1_4
usemtl metal
v -0.887146 39.13059 200.48784
v -0.887146 39.13059 151.59344
v 1.550354 39.13059 176.04063
v 3.987854 39.13059 200.48784
v 3.987854 39.13059 151.59344
v 1.550354 41.565296 200.48784
v 3.987854 44.0 200.48784
v -0.887146 44.0 200.48784
v -0.887146 41.565296 176.04063
v -0.887146 44.0 151.59344
v 1.550354 41.565296 151.59344
v 3.987854 44.0 151.59344
v 1.550354 44.0 176.04063
v 3.987854 41.565296 176.04063
f 43//1 44//1 45//1
f 46//1 43//1 45//1
f 47//1 46//1 45//1
f 44//1 47//1 45//1
f 43//3 46//3 48//3
f 46//3 49//3 48//3
f 49//3 50//3 48//3
f 50//3 43//3 48//3
f 44//4 43//4 51//4
f 43//4 50//4 51//4
f 50//4 52//4 51//4
f 52//4 44//4 51//4
f 47//6 44//6 53//6
f 44//6 52//6 53//6
f 52//6 54//6 53//6
f 54//6 47//6 53//6
f 52//5 50//5 55//5
f 50//5 49//5 55//5
f 49//5 54//5 55//5
f 54//5 52//5 55//5
f 46//2 47//2 56//2
f 47//2 54//2 56//2
f 54//2 49//2 56//2
f 49//2 46//2 56//2
g Cube_1_2_5
usemtl metal
v 111.23786 19.455246 200.48784
v 111.23786 19.455246 151.59344
v 113.675354 19.455246 176.04063
v 116.112854 19.455246 200.48784
v 116.112854 19.455246 151.59344
v 113.675354 21.889952 200.48784
v 116.112854 24.324657 200.48784
v 111.23786 24.324657 200.48784
v 111.23786 21.889952 176.04063
v 111.23786 24.324657 151.59344
v 113.675354 21.889952 151.59344
v 116.112854 24.324657 151.59344
v 113.675354 24.324657 176.04063
v 116.112854 21.889952 176.04063
f 57//1 58//1 59//1
f 60//1 57//1 59//1
f 61//1 60//1 59//1
f 58//1 61//1 59//1
f 57//3 60//3 62//3
f 60//3 63//3 62//3
f 63//3 64//3 62//3
f 64//3 57//3 62//3
f 58//4 57//4 65//4
f 57//4 64//4 65//4
f 64//4 66//4 65//4
f 66//4 58//4 65//4
f 61//6 58//6 67//6
f 58//6 66//6 67//6
f 66//6 68//6 67//6
f 68//6 61//6 67//6
f 66//5 64//5 69//5
f 64//5 63//5 69//5
f 63//5 68//5 69//5
f 68//5 66//5 69//5
f 60//2 61//2 70//2
f 61//2 68//2 70//2
f 68//2 63//2 70//2
f 63//2 60//2 70//2
g Cube_1_1_6
usemtl metal
v 111.23786 39.13059 200.48784
v 111.23786 39.13059 151.59344
v 113.675354 39.13059 176.04063
v 116.112854 39.13059 200.48784
v 116.112854 39.13059 151.59344
v 113.675354 41.565296 200.48784
v 116.112854 44.0 200.48784
v 111.23786 44.0 200.48784
v 111.23786 41.565296 176.04063
v 111.23786 44.0 151.59344
v 113.675354 41.565296 151.59344
v 116.112854 44.0 151.59344
v 113.675354 44.0 176.04063
v 116.112854 41.565296 176.04063
f 71//1 72//1 73//1
f 74//1 71//1 73//1
f 75//1 74//1 73//1
f 72//1 75//1 73//1
f 71//3 74//3 76//3
f 74//3 77//3 76//3
f 77//3 78//3 76//3
f 78//3 71//3 76//3
f 72//4 71//4 79//4
f 71//4 78//4 79//4
f 78//4 80//4 79//4
f 80//4 72//4 79//4
f 75//6 72//6 81//6
f 72//6 80//6 81//6
f 80//6 82//6 81//6
f 82//6 75//6 81//6
f 80//5 78//5 83//5
f 78//5 77//5 83//5
f 77//5 82//5 83//5
f 82//5 80//5 83//5
f 74//2 75//2 84//2
f 75//2 82//2 84//2
f 82//2 77//2 84//2
f 77//2 74//2 84//2
g Cube_2_3_7
usemtl metal
v 111.23786 24.509695 156.44865
v 3.987854 24.509695 156.44865
v 57.612854 22.07499 156.44865
v 111.23786 19.640285 156.44865
v 3.987854 19.640285 156.44865
v 111.23786 22.07499 154.00394
v 111.23786 19.640285 151.55922
v 111.23786 24.509695 151.55922
v 57.612854 24.509695 154.00394
v 3.987854 24.509695 151.55922
v 3.987854 22.07499 154.00394
v 3.987854 19.640285 151.55922
v 57.612854 22.07499 151.55922
v 57.612854 19.640285 154.00394
f 85//3 86//3 87//3
f 88//3 85//3 87//3
f 89//3 88//3 87//3
f 86//3 89//3 87//3
f 85//2 88//2 90//2
f 88//2 91//2 90//2
f 91//2 92//2 90//2
f 92//2 85//2 90//2
f 86//5 85//5 93//5
f 85//5 92//5 93//5
f 92//5 94//5 93//5
f 94//5 86//5 93//5
f 89//4 86//4 95//4
f 86//4 94//4 95//4
f 94//4 96//4 95//4
f 96//4 89//4 95//4
f 94//6 92//6 97//6
f 92//6 91//6 97//6
f 91//6 96//6 97//6
f 96//6 94//6 97//6
f 88//1 89//1 98//1
f 89//1 96//1 98//1
f 96//1 91//1 98//1
f 91//1 88//1 98//1
g Cube_2_2_8
usemtl metal
v 111.23786 24.509695 200.45361
v 3.987854 24.509695 200.45361
v 57.612854 22.07499 200.45361
v 111.23786 19.640285 200.45361
v 3.987854 19.640285 200.45361
v 111.23786 22.07499 198.0089
v 111.23786 19.640285 195.56416
v 111.23786 24.509695 195.56416
v 57.612854 24.509695 198.0089
v 3.987854 24.509695 195.56416
v 3.987854 22.07499 198.0089
v 3.987854 19.640285 195.56416
v 57.612854 22.07499 195.56416
v 57.612854 19.640285 198.0089
f 99//3 100//3 101//3
f 102//3 99//3 101//3
f 103//3 102//3 101//3
f 100//3 103//3 101//3
f 99//2 102//2 104//2
f 102//2 105//2 104//2
f 105//2 106//2 104//2
f 106//2 99//2 104//2
f 100//5 99//5 107//5
f 99//5 106//5 107//5
f 106//5 108//5 107//5
f 108//5 100//5 107//5
f 103//4 100//4 109//4
f 100//4 108//4 109//4
f 108//4 110//4 109//4
f 110//4 103//4 109//4
f 108//6 106//6 111//6
f 106//6 105//6 111//6
f 105//6 110//6 111//6
f 110//6 108//6 111//6
f 102//1 103//1 112//1
f 103//1 110//1 112//1
f 110//1 105//1 112//1
f 105//1 102//1 112//1
g sweethome3d_window_pane_9
usemtl glasstransparent
v 111.72536 43.597786 195.56416
v 3.987854 43.597786 195.56416
v 57.856606 43.500397 195.56416
v 111.72536 43.40301 195.56416
v 3.987854 43.40301 195.56416
v 111.72536 43.500397 176.00641
v 111.72536 43.40301 156.44865
v 111.72536 43.597786 156.44865
v 57.856606 43.597786 176.00641
v 3.987854 43.597786 156.44865
v 3.987854 43.500397 176.00641
v 3.987854 43.40301 156.44865
v 57.856606 43.500397 156.44865
v 57.856606 43.40301 176.00641
f 113//3 114//3 115//3
f 116//3 113//3 115//3
f 117//3 116//3 115//3
f 114//3 117//3 115//3
f 113//2 116//2 118//2
f 116//2 119//2 118//2
f 119//2 120//2 118//2
f 120//2 113//2 118//2
f 114//5 113//5 121//5
f 113//5 120//5 121//5
f 120//5 122//5 121//5
f 122//5 114//5 121//5
f 117//4 114//4 123//4
f 114//4 122//4 123//4
f 122//4 124//4 123//4
f 124//4 117//4 123//4
f 122//6 120//6 125//6
f 120//6 119//6 125//6
f 119//6 124//6 125//6
f 124//6 122//6 125//6
f 116//1 117//1 126//1
f 117//1 124//1 126//1
f 124//1 119//1 126//1
f 119//1 116//1 126//1
g Cube_2_1_10
usemtl metal
v 111.23786 43.98734 200.45361
v 3.987854 43.98734 200.45361
v 57.612854 41.552635 200.45361
v 111.23786 39.117928 200.45361
v 3.987854 39.117928 200.45361
v 111.23786 41.552635 198.0089
v 111.23786 39.117928 195.56416
v 111.23786 43.98734 195.56416
v 57.612854 43.98734 198.0089
v 3.987854 43.98734 195.56416
v 3.987854 41.552635 198.0089
v 3.987854 39.117928 195.56416
v 57.612854 41.552635 195.56416
v 57.612854 39.117928 198.0089
f 127//3 128//3 129//3
f 130//3 127//3 129//3
f 131//3 130//3 129//3
f 128//3 131//3 129//3
f 127//2 130//2 132//2
f 130//2 133//2 132//2
f 133//2 134//2 132//2
f 134//2 127//2 132//2
f 128//5 127//5 135//5
f 127//5 134//5 135//5
f 134//5 136//5 135//5
f 136//5 128//5 135//5
f 131//4 128//4 137//4
f 128//4 136//4 137//4
f 136//4 138//4 137//4
f 138//4 131//4 137//4
f 136//6 134//6 139//6
f 134//6 133//6 139//6
f 133//6 138//6 139//6
f 138//6 136//6 139//6
f 130//1 131//1 140//1
f 131//1 138//1 140//1
f 138//1 133//1 140//1
f 133//1 130//1 140//1
g Cube_3_3_11
usemtl metal
v 3.987854 -0 156.44865
v -0.887146 -0 156.44865
v 1.550354 -0 154.00394
v 3.987854 -0 151.55922
v -0.887146 -0 151.55922
v 3.987854 21.912352 154.00394
v 3.987854 43.8247 151.55922
v 3.987854 43.8247 156.44865
v 1.550354 21.912352 156.44865
v -0.887146 43.8247 156.44865
v -0.887146 21.912352 154.00394
v -0.887146 43.8247 151.55922
v 1.550354 43.8247 154.00394
v 1.550354 21.912352 151.55922
f 141//1 142//1 143//1
f 144//1 141//1 143//1
f 145//1 144//1 143//1
f 142//1 145//1 143//1
f 141//2 144//2 146//2
f 144//2 147//2 146//2
f 147//2 148//2 146//2
f 148//2 141//2 146//2
f 142//3 141//3 149//3
f 141//3 148//3 149//3
f 148//3 150//3 149//3
f 150//3 142//3 149//3
f 145//4 142//4 151//4
f 142//4 150//4 151//4
f 150//4 152//4 151//4
f 152//4 145//4 151//4
f 150//5 148//5 153//5
f 148//5 147//5 153//5
f 147//5 152//5 153//5
f 152//5 150//5 153//5
f 144//6 145//6 154//6
f 145//6 152//6 154//6
f 152//6 147//6 154//6
f 147//6 144//6 154//6
g Cube_3_2_12
usemtl metal
v 116.112854 -0 156.44865
v 111.23786 -0 156.44865
v 113.675354 -0 154.00394
v 116.112854 -0 151.55922
v 111.23786 -0 151.55922
v 116.112854 21.912352 154.00394
v 116.112854 43.8247 151.55922
v 116.112854 43.8247 156.44865
v 113.675354 21.912352 156.44865
v 111.23786 43.8247 156.44865
v 111.23786 21.912352 154.00394
v 111.23786 43.8247 151.55922
v 113.675354 43.8247 154.00394
v 113.675354 21.912352 151.55922
f 155//1 156//1 157//1
f 158//1 155//1 157//1
f 159//1 158//1 157//1
f 156//1 159//1 157//1
f 155//2 158//2 160//2
f 158//2 161//2 160//2
f 161//2 162//2 160//2
f 162//2 155//2 160//2
f 156//3 155//3 163//3
f 155//3 162//3 163//3
f 162//3 164//3 163//3
f 164//3 156//3 163//3
f 159//4 156//4 165//4
f 156//4 164//4 165//4
f 164//4 166//4 165//4
f 166//4 159//4 165//4
f 164//5 162//5 167//5
f 162//5 161//5 167//5
f 161//5 166//5 167//5
f 166//5 164//5 167//5
f 158//6 159//6 168//6
f 159//6 166//6 168//6
f 166//6 161//6 168//6
f 161//6 158//6 168//6
g Cube_3_1_13
usemtl metal
v 116.112854 -0 200.55922
v 111.23786 -0 200.55922
v 113.675354 -0 198.1145
v 116.112854 -0 195.66978
v 111.23786 -0 195.66978
v 116.112854 21.912352 198.1145
v 116.112854 43.8247 195.66978
v 116.112854 43.8247 200.55922
v 113.675354 21.912352 200.55922
v 111.23786 43.8247 200.55922
v 111.23786 21.912352 198.1145
v 111.23786 43.8247 195.66978
v 113.675354 43.8247 198.1145
v 113.675354 21.912352 195.66978
f 169//1 170//1 171//1
f 172//1 169//1 171//1
f 173//1 172//1 171//1
f 170//1 173//1 171//1
f 169//2 172//2 174//2
f 172//2 175//2 174//2
f 175//2 176//2 174//2
f 176//2 169//2 174//2
f 170//3 169//3 177//3
f 169//3 176//3 177//3
f 176//3 178//3 177//3
f 178//3 170//3 177//3
f 173//4 170//4 179//4
f 170//4 178//4 179//4
f 178//4 180//4 179//4
f 180//4 173//4 179//4
f 178//5 176//5 181//5
f 176//5 175//5 181//5
f 175//5 180//5 181//5
f 180//5 178//5 181//5
f 172//6 173//6 182//6
f 173//6 180//6 182//6
f 180//6 175//6 182//6
f 175//6 172//6 182//6
